<svg width="512" height="512" viewBox="0 0 512 512" fill="none" xmlns="http://www.w3.org/2000/svg">
<g style="mix-blend-mode:plus-lighter">
<rect width="512" height="512" rx="192" fill="url(#paint0_angular_15_10)"/>
</g>
<path d="M152 140V340L312 420" stroke="white" stroke-opacity="0.9" stroke-width="48" stroke-linecap="round" stroke-linejoin="round"/>
<path d="M300.396 348.921C296.613 350.107 292.896 344.525 295.479 341.516C307.575 327.383 324.616 304.63 328.766 284.348C332.915 264.066 326.113 236.43 320.503 218.703C319.318 214.92 324.912 211.237 327.921 213.82C342.054 225.915 364.794 242.923 385.077 247.073C405.359 251.222 432.995 244.419 450.722 238.81C454.505 237.625 458.2 243.253 455.605 246.227C443.509 260.361 426.501 283.101 422.364 303.417C418.215 323.7 425.018 351.336 430.614 369.029C431.8 372.811 426.185 376.541 423.21 373.946C409.076 361.85 386.323 344.808 366.007 340.671C345.737 336.556 318.089 343.324 300.396 348.921Z" fill="white" fill-opacity="0.9"/>
<path opacity="0.8" d="M221.418 119.329C217.808 120.988 218.603 128.016 222.497 128.821C234.189 131.155 248.744 135.358 257.906 142.635C267.067 149.913 274.41 163.139 279.352 173.983C280.977 177.605 288.039 176.797 288.81 172.916C291.156 161.258 295.347 146.669 302.625 137.507C309.902 128.346 323.162 120.991 334.006 116.048C337.628 114.423 336.787 107.374 332.905 106.603C321.247 104.257 306.658 100.066 297.53 92.776C288.403 85.4863 280.98 72.2507 276.071 61.3949C274.413 57.7846 267.397 58.614 266.592 62.5081C264.246 74.1656 260.055 88.7548 252.765 97.8826C245.476 107.01 232.274 114.42 221.418 119.329Z" fill="white"/>
<defs>
<radialGradient id="paint0_angular_15_10" cx="0" cy="0" r="1" gradientUnits="userSpaceOnUse" gradientTransform="translate(256 256) rotate(90) scale(256)">
<stop offset="0.095" stop-color="#F97316"/>
<stop offset="1" stop-color="#F25533" stop-opacity="0.9"/>
</radialGradient>
</defs>
</svg>
